<?xml version="1.0" encoding="UTF-8"?>
<svg width="251px" height="38px" viewBox="0 0 251 38" version="1.1" xmlns="http://www.w3.org/2000/svg" xmlns:xlink="http://www.w3.org/1999/xlink">
    <title>DC8F4D06-BBD5-4046-9380-106B1092A85E</title>
    <g id="Page-1" stroke="none" stroke-width="1" fill="none" fill-rule="evenodd">
        <g id="op3-copy-4" transform="translate(-40.000000, -46.000000)">
            <g id="Group-7" transform="translate(40.000000, 46.000000)">
                <path d="M12.6107992,27.6023984 C16.628399,27.6023984 19.6105988,26.9885984 21.5573987,25.7609985 C23.5041986,24.5333985 24.4775985,22.6423987 24.4775985,20.0879988 C24.4775985,18.4759989 24.0559986,17.161599 23.2127986,16.144799 C22.3695987,15.1279991 20.9435988,14.2475992 18.9347989,13.5035992 C18.8851989,13.4787992 18.8603989,13.4353992 18.8603989,13.3733992 C18.8603989,13.3113992 18.8851989,13.2679992 18.9347989,13.2431992 C20.7451988,12.3999993 22.0099987,11.5257993 22.7291986,10.6205994 C23.4483986,9.71539942 23.8079986,8.60559949 23.8079986,7.29119957 C23.8079986,4.88559971 22.8097986,3.06899982 20.8133988,1.84139989 C18.8169989,0.613799963 15.8843991,-1.687539e-13 12.0155993,-1.687539e-13 L12.0155993,-1.687539e-13 L0.929999945,-1.687539e-13 C0.657199961,-1.687539e-13 0.433999974,0.0929999945 0.260399984,0.278999983 C0.0867999948,0.464999972 0,0.694399959 0,0.967199942 L0,0.967199942 L0,26.7839984 C0,27.0071984 0.0805999952,27.1993984 0.241799986,27.3605984 C0.402999976,27.5217984 0.607599964,27.6023984 0.855599949,27.6023984 L0.855599949,27.6023984 L12.6107992,27.6023984 Z M12.6107992,10.7879994 L9.07679946,10.7879994 C8.85359947,10.7879994 8.69239948,10.7259994 8.59319949,10.6019994 C8.49399949,10.4779994 8.4443995,10.2671994 8.4443995,9.96959941 L8.4443995,9.96959941 L8.4443995,6.32399962 C8.4443995,6.05119964 8.50639949,5.85899965 8.63039949,5.74739966 C8.75439948,5.63579966 8.97759946,5.57999967 9.29999945,5.57999967 L9.29999945,5.57999967 L12.3503993,5.57999967 C13.2431992,5.57999967 13.9871992,5.82799965 14.5823991,6.32399962 C15.1775991,6.81999959 15.4751991,7.46479956 15.4751991,8.25839951 C15.4751991,9.00239946 15.2147991,9.60999943 14.6939991,10.0811994 C14.1731992,10.5523994 13.4787992,10.7879994 12.6107992,10.7879994 L12.6107992,10.7879994 Z M12.4247993,22.0223987 L9.07679946,22.0223987 C8.85359947,22.0223987 8.69239948,21.9603987 8.59319949,21.8363987 C8.49399949,21.7123987 8.4443995,21.5015987 8.4443995,21.2039987 L8.4443995,21.2039987 L8.4443995,17.297999 C8.4443995,17.025199 8.50639949,16.826799 8.63039949,16.702799 C8.75439948,16.578799 8.97759946,16.516799 9.29999945,16.516799 L9.29999945,16.516799 L12.6107992,16.516799 C13.5283992,16.516799 14.2723991,16.764799 14.8427991,17.260799 C15.4131991,17.7567989 15.6983991,18.3891989 15.6983991,19.1579989 C15.6983991,19.9267988 15.4069991,20.5963988 14.8241991,21.1667987 C14.2413992,21.7371987 13.4415992,22.0223987 12.4247993,22.0223987 L12.4247993,22.0223987 Z M33.293998,27.6023984 C33.715598,27.6023984 34.025598,27.5217984 34.223998,27.3605984 C34.4223979,27.1993984 34.5215979,26.9203984 34.5215979,26.5235984 L34.5215979,26.5235984 L34.5215979,16.628399 C34.5215979,15.983599 34.8501979,15.4007991 35.5073979,14.8799991 C36.1645978,14.3591991 36.9023978,14.0987992 37.7207978,14.0987992 C38.7871977,14.0987992 39.8535976,14.2351992 40.9199976,14.5079991 C41.1431975,14.5575991 41.3229975,14.5327991 41.4593975,14.4335991 C41.5957975,14.3343991 41.6639975,14.1607992 41.6639975,13.9127992 L41.6639975,13.9127992 L41.6639975,8.25839951 C41.6639975,7.76239954 41.2051975,7.51439955 40.2875976,7.51439955 C39.4195977,7.51439955 38.4523977,7.83679953 37.3859978,8.48159949 C36.3195978,9.12639946 35.4887979,9.90759941 34.8935979,10.8251994 C34.7695979,10.9739993 34.6455979,11.0483993 34.5215979,11.0483993 C34.347998,11.0483993 34.261198,10.9367993 34.261198,10.7135994 L34.261198,10.7135994 L34.261198,8.63039949 C34.261198,8.4071995 34.199198,8.22739951 34.075198,8.09099952 C33.951198,7.95459953 33.789998,7.88639953 33.591598,7.88639953 L33.591598,7.88639953 L27.7883983,7.88639953 C27.3171984,7.88639953 27.0815984,8.17159951 27.0815984,8.74199948 L27.0815984,8.74199948 L27.0815984,26.6723984 C27.0815984,26.9947984 27.1497984,27.2303984 27.2861984,27.3791984 C27.4225984,27.5279984 27.6767984,27.6023984 28.0487983,27.6023984 L28.0487983,27.6023984 L33.293998,27.6023984 Z M50.182797,27.6023984 C50.604397,27.6023984 50.914397,27.5217984 51.112797,27.3605984 C51.3111969,27.1993984 51.4103969,26.9203984 51.4103969,26.5235984 L51.4103969,26.5235984 L51.4103969,8.63039949 C51.4103969,8.4071995 51.3483969,8.22739951 51.2243969,8.09099952 C51.100397,7.95459953 50.939197,7.88639953 50.740797,7.88639953 L50.740797,7.88639953 L44.6771973,7.88639953 C44.2059974,7.88639953 43.9703974,8.17159951 43.9703974,8.74199948 L43.9703974,8.74199948 L43.9703974,26.6723984 C43.9703974,26.9947984 44.0385974,27.2303984 44.1749974,27.3791984 C44.3113974,27.5279984 44.5655973,27.6023984 44.9375973,27.6023984 L44.9375973,27.6023984 L50.182797,27.6023984 Z M60.7103964,27.6023984 C61.1319964,27.6023984 61.4419963,27.5217984 61.6403963,27.3605984 C61.8387963,27.1993984 61.9379963,26.9203984 61.9379963,26.5235984 L61.9379963,0.781199953 C61.9379963,0.533199968 61.8759963,0.34099998 61.7519963,0.204599988 C61.6279963,0.0681999959 61.4667963,-1.687539e-13 61.2683963,-1.687539e-13 L55.3163967,-1.687539e-13 C54.8451967,-1.687539e-13 54.6095967,0.285199983 54.6095967,0.855599949 L54.4235968,26.6723984 C54.4235968,26.9947984 54.4979968,27.2303984 54.6467967,27.3791984 C54.7955967,27.5279984 55.0559967,27.6023984 55.4279967,27.6023984 L60.7103964,27.6023984 Z M71.2751958,27.6023984 C71.6967957,27.6023984 72.0067957,27.5217984 72.2051957,27.3605984 C72.4035957,27.1993984 72.5027957,26.9203984 72.5027957,26.5235984 L72.5027957,26.5235984 L72.5027957,0.781199953 C72.5027957,0.533199968 72.4407957,0.34099998 72.3167957,0.204599988 C72.1927957,0.0681999959 72.0315957,-1.687539e-13 71.8331957,-1.687539e-13 L71.8331957,-1.687539e-13 L65.8811961,-1.687539e-13 C65.4099961,-1.687539e-13 65.1743961,0.285199983 65.1743961,0.855599949 L65.1743961,0.855599949 L64.9883961,26.6723984 C64.9883961,26.9947984 65.0627961,27.2303984 65.2115961,27.3791984 C65.3603961,27.5279984 65.6207961,27.6023984 65.9927961,27.6023984 L65.9927961,27.6023984 L71.2751958,27.6023984 Z M81.8027951,27.6023984 C82.2243951,27.6023984 82.5343951,27.5217984 82.7327951,27.3605984 C82.9311951,27.1993984 83.0303951,26.9203984 83.0303951,26.5235984 L83.0303951,26.5235984 L83.0303951,8.63039949 C83.0303951,8.4071995 82.9683951,8.22739951 82.8443951,8.09099952 C82.7203951,7.95459953 82.5591951,7.88639953 82.3607951,7.88639953 L82.3607951,7.88639953 L76.2971955,7.88639953 C75.8259955,7.88639953 75.5903955,8.17159951 75.5903955,8.74199948 L75.5903955,8.74199948 L75.5903955,26.6723984 C75.5903955,26.9947984 75.6585955,27.2303984 75.7949955,27.3791984 C75.9313955,27.5279984 76.1855955,27.6023984 76.5575954,27.6023984 L76.5575954,27.6023984 L81.8027951,27.6023984 Z M95.6783943,27.9743983 C97.6871942,27.9743983 99.4851941,27.5403984 101.072394,26.6723984 C102.659594,25.8043985 103.893394,24.6015985 104.773794,23.0639986 C105.654194,21.5263987 106.094394,19.7903988 106.094394,17.8559989 C106.094394,15.8719991 105.660394,14.0925992 104.792394,12.5177993 C103.924394,10.9429993 102.702994,9.71539942 101.128194,8.83499947 C99.5533941,7.95459953 97.7491942,7.51439955 95.7155943,7.51439955 C93.7563944,7.51439955 91.9893945,7.94839953 90.4145946,8.81639947 C88.8397947,9.68439942 87.5997948,10.8995994 86.6945948,12.4619993 C85.7893949,14.0243992 85.3367949,15.8223991 85.3367949,17.8559989 C85.3367949,19.8151988 85.7769949,21.5573987 86.6573948,23.0825986 C87.5377948,24.6077985 88.7591947,25.8043985 90.3215946,26.6723984 C91.8839945,27.5403984 93.6695944,27.9743983 95.6783943,27.9743983 Z M95.7155943,23.2127986 C94.7235944,23.2127986 93.9981944,22.7787986 93.5393944,21.9107987 C93.0805945,21.0427987 92.8511945,19.6415988 92.8511945,17.7071989 C92.8511945,15.7727991 93.0805945,14.3591991 93.5393944,13.4663992 C93.9981944,12.5735993 94.7235944,12.1271993 95.7155943,12.1271993 C96.7075942,12.1271993 97.4329942,12.5673993 97.8917942,13.4477992 C98.3505941,14.3281991 98.5799941,15.7479991 98.5799941,17.7071989 C98.5799941,19.6167988 98.3505941,21.0117987 97.8917942,21.8921987 C97.4329942,22.7725986 96.7075942,23.2127986 95.7155943,23.2127986 Z M130.033188,27.6023984 C130.504388,27.6023984 130.739988,27.3295984 130.739988,26.7839984 L130.739988,26.7839984 L130.739988,13.3547992 C130.739988,13.0571992 130.888788,12.9083992 131.186388,12.9083992 L131.186388,12.9083992 L133.492788,12.9083992 C134.038388,12.9083992 134.311188,12.6727992 134.311188,12.2015993 L134.311188,12.2015993 L134.311188,8.70479948 C134.311188,8.4567995 134.230588,8.25839951 134.069388,8.10959952 C133.908188,7.96079953 133.678788,7.88639953 133.381188,7.88639953 L133.381188,7.88639953 L131.037588,7.88639953 C130.715188,7.88639953 130.553988,7.72519954 130.553988,7.40279956 L130.553988,7.40279956 L130.553988,6.7331996 C130.553988,6.21239963 130.721388,5.76599966 131.056188,5.39399968 C131.390988,5.0219997 131.781588,4.83599971 132.227988,4.83599971 L132.227988,4.83599971 L133.827588,4.83599971 C134.050788,4.83599971 134.218188,4.76779972 134.329788,4.63139972 C134.441388,4.49499973 134.497188,4.31519974 134.497188,4.09199976 L134.497188,4.09199976 L134.459988,0.967199942 C134.459988,0.66959996 134.366988,0.433999974 134.180988,0.260399984 C133.994988,0.0867999948 133.728388,-3.37507799e-13 133.381188,-3.37507799e-13 L133.381188,-3.37507799e-13 L129.177588,-3.37507799e-13 C127.367188,-3.37507799e-13 125.934988,0.471199972 124.880988,1.41359992 C123.826988,2.35599986 123.299988,3.63319978 123.299988,5.24519969 L123.299988,5.24519969 L123.299988,7.21679957 C123.299988,7.46479956 123.262788,7.63839954 123.188388,7.73759954 C123.113988,7.83679953 122.977588,7.88639953 122.779188,7.88639953 L122.779188,7.88639953 L120.993588,7.88639953 C120.695989,7.88639953 120.472789,7.96079953 120.323989,8.10959952 C120.175189,8.25839951 120.100789,8.4567995 120.100789,8.70479948 L120.100789,8.70479948 L120.100789,12.2015993 C120.100789,12.6727992 120.373589,12.9083992 120.919189,12.9083992 L120.919189,12.9083992 L123.002388,12.9083992 C123.200788,12.9083992 123.299988,13.0323992 123.299988,13.2803992 L123.299988,13.2803992 L123.299988,26.8583984 C123.299988,27.3543984 123.523188,27.6023984 123.969588,27.6023984 L123.969588,27.6023984 L130.033188,27.6023984 Z M142.755587,27.6023984 C143.177187,27.6023984 143.487187,27.5217984 143.685587,27.3605984 C143.883987,27.1993984 143.983187,26.9203984 143.983187,26.5235984 L143.983187,26.5235984 L143.983187,0.781199953 C143.983187,0.533199968 143.921187,0.34099998 143.797187,0.204599988 C143.673187,0.0681999959 143.511987,-3.37507799e-13 143.313587,-3.37507799e-13 L143.313587,-3.37507799e-13 L137.361588,-3.37507799e-13 C136.890388,-3.37507799e-13 136.654788,0.285199983 136.654788,0.855599949 L136.654788,0.855599949 L136.468788,26.6723984 C136.468788,26.9947984 136.543188,27.2303984 136.691988,27.3791984 C136.840788,27.5279984 137.101188,27.6023984 137.473188,27.6023984 L137.473188,27.6023984 L142.755587,27.6023984 Z M152.167187,27.9743983 C154.225587,27.9743983 156.023586,27.3295984 157.561186,26.0399984 C157.833986,25.7919985 158.069586,25.6679985 158.267986,25.6679985 C158.441586,25.6679985 158.540786,25.7919985 158.565586,26.0399984 L158.565586,26.0399984 L158.602786,26.3003984 C158.677186,26.7219984 158.782586,27.0443984 158.918986,27.2675984 C159.055386,27.4907984 159.272386,27.6023984 159.569986,27.6023984 L159.569986,27.6023984 L164.666386,27.6023984 C165.013586,27.6023984 165.242986,27.5279984 165.354586,27.3791984 C165.466186,27.2303984 165.521986,26.9699984 165.521986,26.5979984 L165.521986,26.5979984 L165.521986,13.6523992 C165.521986,11.6931993 164.846186,10.1803994 163.494586,9.11399946 C162.142986,8.04759952 159.842786,7.51439955 156.593986,7.51439955 C151.385987,7.51439955 148.261187,8.98999946 147.219587,11.9411993 C147.120387,12.2387993 147.070787,12.4743993 147.070787,12.6479992 C147.070787,12.9207992 147.207187,13.0819992 147.479987,13.1315992 L147.479987,13.1315992 L152.353187,14.0987992 C152.452387,14.1235992 152.588787,14.1359992 152.762387,14.1359992 C152.911187,14.1359992 153.028987,14.1049992 153.115787,14.0429992 C153.202587,13.9809992 153.283187,13.8631992 153.357587,13.6895992 C153.655187,13.0695992 154.064387,12.6231992 154.585186,12.3503993 C155.105986,12.0775993 155.663986,11.9411993 156.259186,11.9411993 C157.722386,11.9411993 158.453986,12.6603992 158.453986,14.0987992 L158.453986,14.0987992 L158.453986,14.7311991 C158.453986,15.0783991 158.267986,15.2519991 157.895986,15.2519991 L157.895986,15.2519991 L157.635586,15.2519991 C155.329186,15.2519991 153.314187,15.5557991 151.590587,16.163399 C149.866987,16.770999 148.540187,17.6265989 147.610187,18.7301989 C146.680187,19.8337988 146.215187,21.1047987 146.215187,22.5431987 C146.215187,24.1303986 146.754587,25.4323985 147.833387,26.4491984 C148.912187,27.4659984 150.356787,27.9743983 152.167187,27.9743983 Z M155.552386,23.2871986 C154.882786,23.2871986 154.361987,23.1259986 153.989987,22.8035986 C153.617987,22.4811987 153.431987,22.0595987 153.431987,21.5387987 C153.431987,20.8939988 153.692387,20.3545988 154.213187,19.9205988 C154.733986,19.4865988 155.335386,19.1579989 156.017386,18.9347989 C156.699386,18.7115989 157.275986,18.5999989 157.747186,18.5999989 L157.747186,18.5999989 L157.895986,18.5999989 C158.119186,18.5999989 158.267986,18.6495989 158.342386,18.7487989 C158.416786,18.8479989 158.453986,19.0215989 158.453986,19.2695989 L158.453986,19.2695989 L158.453986,21.2411987 C158.453986,21.6627987 158.168786,22.1091987 157.598386,22.5803987 C157.027986,23.0515986 156.345986,23.2871986 155.552386,23.2871986 Z M176.905185,27.9743983 C179.757185,27.9743983 182.038785,27.3853984 183.749985,26.2073984 C185.461185,25.0293985 186.316785,23.3863986 186.316785,21.2783987 C186.316785,19.7407988 185.820785,18.4077989 184.828785,17.279399 C183.836785,16.150999 182.249585,15.3635991 180.067185,14.9171991 L180.067185,14.9171991 L176.123985,14.0987992 C175.528785,13.9747992 175.131985,13.8321992 174.933585,13.6709992 C174.735185,13.5097992 174.635985,13.3299992 174.635985,13.1315992 C174.635985,12.7347992 174.865385,12.4185993 175.324185,12.1829993 C175.782985,11.9473993 176.347185,11.8295993 177.016785,11.8295993 C178.504785,11.8295993 179.744785,12.3999993 180.736785,13.5407992 C181.009585,13.8135992 181.245185,13.9499992 181.443585,13.9499992 C181.542785,13.9499992 181.666785,13.9127992 181.815585,13.8383992 L181.815585,13.8383992 L185.237985,12.2015993 C185.436385,12.1023993 185.535585,11.9659993 185.535585,11.7923993 C185.535585,11.6187993 185.436385,11.3831993 185.237985,11.0855993 C184.667585,10.0935994 183.644585,9.25039945 182.168985,8.55599949 C180.693385,7.86159953 179.000785,7.51439955 177.091185,7.51439955 C175.231185,7.51439955 173.625385,7.80579953 172.273785,8.3885995 C170.922186,8.97139947 169.899186,9.77119942 169.204786,10.7879994 C168.510386,11.8047993 168.163186,12.9579992 168.163186,14.2475992 C168.163186,15.9091991 168.683986,17.235999 169.725586,18.2279989 C170.767186,19.2199989 172.267585,19.8895988 174.226785,20.2367988 L174.226785,20.2367988 L178.021185,20.9063988 C178.665985,21.0303987 179.112385,21.1853987 179.360385,21.3713987 C179.608385,21.5573987 179.732385,21.7867987 179.732385,22.0595987 C179.732385,22.5059987 179.453385,22.8407986 178.895385,23.0639986 C178.337385,23.2871986 177.599585,23.3987986 176.681985,23.3987986 C175.813985,23.3987986 175.094785,23.2933986 174.524385,23.0825986 C173.953985,22.8717986 173.507585,22.6299987 173.185185,22.3571987 C172.862785,22.0843987 172.503185,21.7247987 172.106385,21.2783987 C171.932785,21.1047987 171.759185,21.0179987 171.585585,21.0179987 C171.387185,21.0179987 171.176386,21.0799987 170.953186,21.2039987 L170.953186,21.2039987 L167.716786,22.8407986 C167.543186,22.9399986 167.456386,23.0887986 167.456386,23.2871986 C167.456386,23.4607986 167.518386,23.6715986 167.642386,23.9195986 C168.287186,25.1099985 169.421786,26.0833984 171.046186,26.8397984 C172.670585,27.5961984 174.623585,27.9743983 176.905185,27.9743983 Z M194.761184,27.6023984 C195.207584,27.6023984 195.523784,27.5217984 195.709784,27.3605984 C195.895784,27.1993984 195.988784,26.9203984 195.988784,26.5235984 L195.988784,26.5235984 L195.988784,14.6195991 C196.683184,13.3795992 197.600784,12.7595992 198.741584,12.7595992 C199.336784,12.7595992 199.807984,12.9207992 200.155184,13.2431992 C200.502384,13.5655992 200.675984,13.9995992 200.675984,14.5451991 L200.675984,14.5451991 L200.675984,26.6723984 C200.675984,27.0195984 200.737984,27.2613984 200.861984,27.3977984 C200.985984,27.5341984 201.209184,27.6023984 201.531584,27.6023984 L201.531584,27.6023984 L206.999983,27.6023984 C207.743983,27.6023984 208.115983,27.2303984 208.115983,26.4863984 L208.115983,26.4863984 L208.115983,13.6523992 C208.115983,11.6931993 207.607583,10.1803994 206.590783,9.11399946 C205.573983,8.04759952 204.147984,7.51439955 202.312784,7.51439955 C201.271184,7.51439955 200.272984,7.71899954 199.318184,8.12819952 C198.363384,8.53739949 197.377584,9.22559945 196.360784,10.1927994 C196.261584,10.2919994 196.162384,10.3415994 196.063184,10.3415994 C195.939184,10.3415994 195.877184,10.2423994 195.877184,10.0439994 L195.877184,10.0439994 L195.877184,0.781199953 C195.877184,0.260399984 195.653984,-3.37507799e-13 195.207584,-3.37507799e-13 L195.207584,-3.37507799e-13 L189.255584,-3.37507799e-13 C189.032384,-3.37507799e-13 188.858784,0.0743999956 188.734784,0.223199987 C188.610784,0.371999978 188.548784,0.582799965 188.548784,0.855599949 L188.548784,0.855599949 L188.548784,26.6723984 C188.548784,27.0195984 188.623184,27.2613984 188.771984,27.3977984 C188.920784,27.5341984 189.168784,27.6023984 189.515984,27.6023984 L189.515984,27.6023984 L194.761184,27.6023984 Z M226.492782,27.9743983 C228.551182,27.9743983 230.349182,27.3295984 231.886782,26.0399984 C232.159582,25.7919985 232.395182,25.6679985 232.593582,25.6679985 C232.767182,25.6679985 232.866382,25.7919985 232.891182,26.0399984 L232.891182,26.0399984 L232.928382,26.3003984 C233.002782,26.7219984 233.108182,27.0443984 233.244582,27.2675984 C233.380982,27.4907984 233.597982,27.6023984 233.895582,27.6023984 L233.895582,27.6023984 L238.991981,27.6023984 C239.339181,27.6023984 239.568581,27.5279984 239.680181,27.3791984 C239.791781,27.2303984 239.847581,26.9699984 239.847581,26.5979984 L239.847581,26.5979984 L239.847581,13.6523992 C239.847581,11.6931993 239.171781,10.1803994 237.820182,9.11399946 C236.468582,8.04759952 234.168382,7.51439955 230.919582,7.51439955 C225.711582,7.51439955 222.586782,8.98999946 221.545183,11.9411993 C221.445983,12.2387993 221.396383,12.4743993 221.396383,12.6479992 C221.396383,12.9207992 221.532783,13.0819992 221.805582,13.1315992 L221.805582,13.1315992 L226.678782,14.0987992 C226.777982,14.1235992 226.914382,14.1359992 227.087982,14.1359992 C227.236782,14.1359992 227.354582,14.1049992 227.441382,14.0429992 C227.528182,13.9809992 227.608782,13.8631992 227.683182,13.6895992 C227.980782,13.0695992 228.389982,12.6231992 228.910782,12.3503993 C229.431582,12.0775993 229.989582,11.9411993 230.584782,11.9411993 C232.047982,11.9411993 232.779582,12.6603992 232.779582,14.0987992 L232.779582,14.0987992 L232.779582,14.7311991 C232.779582,15.0783991 232.593582,15.2519991 232.221582,15.2519991 L232.221582,15.2519991 L231.961182,15.2519991 C229.654782,15.2519991 227.639782,15.5557991 225.916182,16.163399 C224.192582,16.770999 222.865782,17.6265989 221.935782,18.7301989 C221.005783,19.8337988 220.540783,21.1047987 220.540783,22.5431987 C220.540783,24.1303986 221.080183,25.4323985 222.158982,26.4491984 C223.237782,27.4659984 224.682382,27.9743983 226.492782,27.9743983 Z M229.877982,23.2871986 C229.208382,23.2871986 228.687582,23.1259986 228.315582,22.8035986 C227.943582,22.4811987 227.757582,22.0595987 227.757582,21.5387987 C227.757582,20.8939988 228.017982,20.3545988 228.538782,19.9205988 C229.059582,19.4865988 229.660982,19.1579989 230.342982,18.9347989 C231.024982,18.7115989 231.601582,18.5999989 232.072782,18.5999989 L232.072782,18.5999989 L232.221582,18.5999989 C232.444782,18.5999989 232.593582,18.6495989 232.667982,18.7487989 C232.742382,18.8479989 232.779582,19.0215989 232.779582,19.2695989 L232.779582,19.2695989 L232.779582,21.2411987 C232.779582,21.6627987 232.494382,22.1091987 231.923982,22.5803987 C231.353582,23.0515986 230.671582,23.2871986 229.877982,23.2871986 Z M248.924381,27.6023984 C249.345981,27.6023984 249.655981,27.5217984 249.854381,27.3605984 C250.052781,27.1993984 250.151981,26.9203984 250.151981,26.5235984 L250.151981,26.5235984 L250.151981,8.63039949 C250.151981,8.4071995 250.089981,8.22739951 249.965981,8.09099952 C249.841981,7.95459953 249.680781,7.88639953 249.482381,7.88639953 L249.482381,7.88639953 L243.418781,7.88639953 C242.947581,7.88639953 242.711981,8.17159951 242.711981,8.74199948 L242.711981,8.74199948 L242.711981,26.6723984 C242.711981,26.9947984 242.780181,27.2303984 242.916581,27.3791984 C243.052981,27.5279984 243.307181,27.6023984 243.679181,27.6023984 L243.679181,27.6023984 L248.924381,27.6023984 Z" id="Brillioone.fash.ai" fill="#333333" fill-rule="nonzero"></path>
                <g id="Group" transform="translate(54.465597, 20.402399)" fill="#A3CB39">
                    <circle id="Oval" cx="3.59999979" cy="12.5999992" r="3.59999979"></circle>
                    <circle id="Oval-Copy" cx="14.3999991" cy="12.5999992" r="3.59999979"></circle>
                    <circle id="Oval-Copy-2" cx="59.9999921" cy="3.59999979" r="3.59999979"></circle>
                    <circle id="Oval-Copy-3" cx="160.199986" cy="3.59999979" r="3.59999979"></circle>
                </g>
            </g>
        </g>
    </g>
</svg>