<svg xmlns="http://www.w3.org/2000/svg" xmlns:xlink="http://www.w3.org/1999/xlink" width="119.447" height="39.483" viewBox="0 0 119.447 39.483"><defs><style>.a,.o{fill:none;}.b{fill:url(#a);}.c{fill:#333;}.d{fill:#a4cd38;}.e{clip-path:url(#c);}.f{clip-path:url(#d);}.g{clip-path:url(#e);}.h{clip-path:url(#g);}.i{clip-path:url(#i);}.j{clip-path:url(#k);}.k{clip-path:url(#m);}.l{clip-path:url(#o);}.m{clip-path:url(#q);}.n{clip-path:url(#s);}.o{stroke:#b4b4b4;stroke-linecap:round;stroke-width:0.25px;}.p{clip-path:url(#u);}.q{clip-path:url(#w);}.r{clip-path:url(#y);}.s{clip-path:url(#aa);}.t{clip-path:url(#ac);}.u{clip-path:url(#ae);}</style><linearGradient id="a" x1="0.5" x2="0.5" y2="1" gradientUnits="objectBoundingBox"><stop offset="0" stop-color="#b4ee0e"/><stop offset="0.842" stop-color="#13eee7" stop-opacity="0.031"/><stop offset="1" stop-color="#0eeeee" stop-opacity="0"/></linearGradient><clipPath id="c"><path class="a" d="M3.293-54.266a8.855,8.855,0,0,1-2-.244C1.037-54.566,1-54.632,1-54.782v-6.59a.2.2,0,0,1,.2-.188H2.335a.188.188,0,0,1,.188.188v1.626a6.552,6.552,0,0,1,.77-.066A2.154,2.154,0,0,1,5.654-57.4v.733A2.162,2.162,0,0,1,3.293-54.266Zm.837-3.14c0-.658-.169-1.147-.837-1.147a7.047,7.047,0,0,0-.77.047v2.933a5.2,5.2,0,0,0,.77.056c.668,0,.837-.489.837-1.156Z" transform="translate(-1 61.56)"/></clipPath><clipPath id="d"><path class="a" d="M1-55.034H45.924V-65H1Z" transform="translate(-1 65)"/></clipPath><clipPath id="e"><path class="a" d="M37.961-48.9a3.848,3.848,0,0,0-1.288.329v3.676a.2.2,0,0,1-.188.2H35.347a.205.205,0,0,1-.2-.2v-4.5c0-.1.094-.144.188-.188a6.568,6.568,0,0,1,2.576-.577.189.189,0,0,1,.188.188v.893a.172.172,0,0,1-.142.179Z" transform="translate(-35.15 50.158)"/></clipPath><clipPath id="g"><path class="a" d="M58.558-44.281H57.411a.188.188,0,0,1-.188-.188v-5.011a.188.188,0,0,1,.188-.188h1.147a.188.188,0,0,1,.188.188v5.011a.188.188,0,0,1-.188.188Z" transform="translate(-57.223 49.667)"/></clipPath><clipPath id="i"><path class="a" d="M73.648-54.35H72.5a.2.2,0,0,1-.2-.2v-6.825a.2.2,0,0,1,.2-.187h1.147a.18.18,0,0,1,.129.056.18.18,0,0,1,.05.131v6.825A.189.189,0,0,1,73.648-54.35Z" transform="translate(-72.304 61.56)"/></clipPath><clipPath id="k"><path class="a" d="M88.486-54.35H87.338a.205.205,0,0,1-.2-.2v-6.825a.2.2,0,0,1,.2-.188h1.147a.18.18,0,0,1,.129.056.18.18,0,0,1,.049.131v6.825a.189.189,0,0,1-.178.2Z" transform="translate(-87.141 61.56)"/></clipPath><clipPath id="m"><path class="a" d="M103.559-44.281h-1.147a.188.188,0,0,1-.188-.188v-5.011a.188.188,0,0,1,.188-.188h1.147a.188.188,0,0,1,.188.188v5.011A.188.188,0,0,1,103.559-44.281Z" transform="translate(-102.224 49.667)"/></clipPath><clipPath id="o"><path class="a" d="M118.684-44.612a2.2,2.2,0,0,1-2.36-2.444v-.658a2.2,2.2,0,0,1,2.36-2.444,2.2,2.2,0,0,1,2.35,2.444v.658A2.2,2.2,0,0,1,118.684-44.612Zm.837-3.1c0-.761-.291-1.147-.837-1.147s-.846.385-.846,1.147v.658c0,.761.3,1.156.846,1.156s.837-.395.837-1.156Z" transform="translate(-116.324 50.158)"/></clipPath><clipPath id="q"><path class="a" d="M73.162-11.161A.908.908,0,0,0,72.6-12a.908.908,0,0,0-.99.2.908.908,0,0,0-.2.99.908.908,0,0,0,.839.561.908.908,0,0,0,.642-.266.908.908,0,0,0,.266-.642Z" transform="translate(-71.346 12.069)"/></clipPath><clipPath id="s"><path class="a" d="M88.018-11.163A.908.908,0,0,0,87.458-12a.908.908,0,0,0-.99.2.908.908,0,0,0-.2.99.908.908,0,0,0,.839.561.908.908,0,0,0,.908-.908Z" transform="translate(-86.202 12.071)"/></clipPath><clipPath id="u"><path class="a" d="M171.212-48.737h-.65a2.3,2.3,0,0,0-2.295,2.3h0v.9a2.3,2.3,0,0,0,2.3,2.3h.65a2.3,2.3,0,0,0,1.623-.672,2.3,2.3,0,0,0,.672-1.623v-.9h0a2.3,2.3,0,0,0-2.3-2.3Zm.908,3.192a.908.908,0,0,1-.266.642.908.908,0,0,1-.642.266h-.65a.908.908,0,0,1-.908-.908v-.9h0a.908.908,0,0,1,.908-.908h.65a.908.908,0,0,1,.908.908h0v.9Z" transform="translate(-168.267 48.737)"/></clipPath><clipPath id="w"><path class="a" d="M212.488-42.59a.713.713,0,0,1-.626-.721v-2.143a1.233,1.233,0,0,0-1.233-1.233h0a1.233,1.233,0,0,0-1.233,1.233v2.144a.714.714,0,0,1-.626.721.694.694,0,0,1-.534-.176.693.693,0,0,1-.228-.514v-2.175a2.62,2.62,0,0,1,2.62-2.62h0a2.62,2.62,0,0,1,2.62,2.62v2.174a.694.694,0,0,1-.228.514A.694.694,0,0,1,212.488-42.59Z" transform="translate(-208.01 48.074)"/></clipPath><clipPath id="y"><path class="a" d="M250.247-42.385h-.936a2.725,2.725,0,0,1-2.725-2.725h0a2.725,2.725,0,0,1,2.725-2.725h.907a.707.707,0,0,1,.713.619.687.687,0,0,1-.175.529.687.687,0,0,1-.509.226h-.936a1.352,1.352,0,0,0-1.352,1.352h0a1.352,1.352,0,0,0,1.352,1.351h.907a.707.707,0,0,1,.713.619.687.687,0,0,1-.175.529.687.687,0,0,1-.509.226Z" transform="translate(-246.586 47.836)"/></clipPath><clipPath id="aa"><path class="a" d="M251.194-34.54h1.341a.687.687,0,0,1,.687.687.687.687,0,0,1-.687.687h-1.341" transform="translate(-251.194 34.54)"/></clipPath><clipPath id="ac"><path class="a" d="M206.288-54.012a.611.611,0,0,0-.611-.611.611.611,0,0,0-.611.611.611.611,0,0,0,.611.611.611.611,0,0,0,.432-.179A.611.611,0,0,0,206.288-54.012Z" transform="translate(-205.065 54.623)"/></clipPath><clipPath id="ae"><path class="a" d="M283.336-25.029a.908.908,0,0,0-.908-.908.908.908,0,0,0-.908.908.908.908,0,0,0,.908.908.908.908,0,0,0,.908-.908Z" transform="translate(-281.52 25.937)"/></clipPath></defs><g transform="translate(-2590 1632.78)"><g transform="translate(2590 -1619.247)"><g transform="translate(0 0.038)"><path class="b" d="M-196.02-24.328h7.6l10.392,14.617h-7.6Z" transform="translate(197.794 24.328)"/><path class="b" d="M-196.776-24.217h7.6L-177.6-8.006h-7.6Z" transform="translate(196.776 32.513)"/></g><path class="c" d="M12.308-18.965H8v-1.246c0-2.426,1.145-3.133,3.6-3.133a21.336,21.336,0,0,1,2.762.236c0,6.906-.034,13.779-.034,20.685h4.784c0-8.186.034-16.44.034-24.66l-3.874.438a21.937,21.937,0,0,0-4.649-.438c-4.615,0-6,.879-7.113,2.713s0,5.635,0,5.635H.887L7.963-8.8c0-4.413.034-2.588.034-7h4.312Zm25.6,5.424c0-4.278-2.527-5.761-6.5-5.761a19.859,19.859,0,0,0-7.176,1.381c.27.977.539,1.988.775,3a18.625,18.625,0,0,1,5.255-.842c2.459,0,3.066.977,3.066,2.864v.4c-1.28.1-3.234.168-4.514.27-3.47.2-6.131,1.887-6.131,5.323,0,1.92,1.011,4.817,5.121,4.817a8.383,8.383,0,0,0,5.727-2.055c.034.034.067.034.067.067.168,1.651,1.213,1.988,2.661,1.988A10.177,10.177,0,0,0,40.3-2.929l-.236-2.7H37.912ZM33.33-9.835v3.167a5.6,5.6,0,0,1-3.4,1.482c-1.583,0-2.257-.741-2.257-2.122,0-1.314.741-2.122,2.325-2.257ZM49.8-19.369c-4.548,0-7.007,1.853-7.007,5.02,0,3.234,2.931,4.076,5.963,5.02,1.482.472,3.1.809,3.1,2.122,0,1.381-1.246,1.819-2.8,1.819A17.261,17.261,0,0,1,43.2-6.5l-1.044,3a16.934,16.934,0,0,0,6.738,1.348c5.121,0,7.715-1.786,7.715-4.952,0-3.841-3.369-4.952-6.131-5.727-1.246-.337-2.931-.741-2.931-1.651,0-1.246,1.213-1.516,2.426-1.516a12.938,12.938,0,0,1,4.615.876c.168-.371.876-2.628,1.044-2.965A13.047,13.047,0,0,0,49.8-19.369Zm14.149,1.752.1-3.537v-5.356H59.3V-2.424h4.851V-14.383a8.334,8.334,0,0,1,3.773-1.246c2.156,0,2.358,1.28,2.358,2.965V-2.424H75.1V-13.676c0-3.1-.707-5.693-5.188-5.693a12.6,12.6,0,0,0-5.693,1.887Zm37.7,4.076c0-4.278-2.527-5.761-6.5-5.761a19.86,19.86,0,0,0-7.176,1.381c.27.977.539,1.988.775,3A18.625,18.625,0,0,1,94-15.765c2.459,0,3.066.977,3.066,2.864v.4c-1.28.1-3.234.168-4.514.27-3.47.2-6.131,1.887-6.131,5.323,0,1.92,1.011,4.817,5.121,4.817a8.383,8.383,0,0,0,5.727-2.055c.034.034.067.034.067.067.168,1.651,1.213,1.988,2.661,1.988a10.178,10.178,0,0,0,4.043-.842l-.236-2.7h-2.156ZM97.069-9.835v3.167a5.6,5.6,0,0,1-3.4,1.482c-1.583,0-2.257-.741-2.257-2.122,0-1.314.741-2.122,2.325-2.257Zm15.194,7.412V-18.965h-4.817V-2.424Zm.438-21.123a2.556,2.556,0,0,0-2.864-2.594,2.523,2.523,0,0,0-2.763,2.594,2.516,2.516,0,0,0,2.763,2.56A2.567,2.567,0,0,0,112.7-23.547Z" transform="translate(6.746 27.084)"/><circle class="d" cx="2.994" cy="2.994" r="2.994" transform="translate(84.484 19.961)"/></g><g transform="translate(2593.992 -1632.78)"><g class="e" transform="translate(0 0.528)"><g class="f" transform="translate(0 -0.527)"><path class="c" d="M-4-66.56H2.187v8.828H-4Z" transform="translate(3.233 66.321)"/></g></g><g class="g" transform="translate(5.236 2.275)"><g class="f" transform="translate(-5.236 -2.276)"><path class="c" d="M30.15-55.158h4.486v6.995H30.15Z" transform="translate(-25.681 56.667)"/></g></g><g class="h" transform="translate(8.621 2.351)"><g class="f" transform="translate(-8.62 -2.351)"><path class="c" d="M52.223-54.667h3.056v6.92H52.223Z" transform="translate(-44.369 56.251)"/></g></g><g class="i" transform="translate(10.933 0.528)"><g class="f" transform="translate(-10.933 -0.527)"><path class="c" d="M67.3-66.56H70.36v8.743H67.3Z" transform="translate(-57.138 66.321)"/></g></g><g class="j" transform="translate(13.207 0.528)"><g class="f" transform="translate(-13.208 -0.527)"><path class="c" d="M82.141-66.56H85.2v8.743H82.141Z" transform="translate(-69.7 66.321)"/></g></g><g class="k" transform="translate(15.52 2.351)"><g class="f" transform="translate(-15.52 -2.351)"><path class="c" d="M97.224-54.667h3.056v6.92H97.224Z" transform="translate(-82.47 56.251)"/></g></g><g class="l" transform="translate(17.682 2.275)"><g class="f" transform="translate(-17.682 -2.276)"><path class="c" d="M111.324-55.158h6.243v7.079h-6.243Z" transform="translate(-94.409 56.667)"/></g></g><g class="m" transform="translate(10.786 8.115)"><g class="f" transform="translate(-10.786 -8.116)"><path class="d" d="M66.346-17.069H69.7v3.35h-3.35Z" transform="translate(-56.327 24.418)"/></g></g><g class="n" transform="translate(13.064 8.115)"><g class="f" transform="translate(-13.064 -8.115)"><path class="d" d="M81.2-17.071h3.35v3.35H81.2Z" transform="translate(-68.905 24.42)"/></g></g><g transform="translate(24.064 0.153)"><path class="o" d="M.5,0V9.07" transform="translate(-0.5)"/></g><path class="a" d="M1-55.034H45.924V-65H1Z" transform="translate(-1 65)"/><g class="p" transform="translate(25.646 2.493)"><g class="f" transform="translate(-25.646 -2.494)"><path class="d" d="M163.267-53.737h6.773v7.02h-6.773Z" transform="translate(-138.388 55.464)"/></g></g><g class="q" transform="translate(31.74 2.595)"><g class="f" transform="translate(-31.74 -2.595)"><path class="d" d="M203.01-53.074h6.773v7.021H203.01Z" transform="translate(-172.037 54.903)"/></g></g><g class="r" transform="translate(37.654 2.632)"><g class="f" transform="translate(-37.654 -2.632)"><path class="d" d="M241.586-52.836h5.882v6.984h-5.882Z" transform="translate(-204.698 54.701)"/></g></g><g class="s" transform="translate(38.36 4.67)"><g class="f" transform="translate(-38.361 -4.67)"><path class="d" d="M246.194-39.54h3.561v2.907h-3.561Z" transform="translate(-208.6 43.444)"/></g></g><g class="t" transform="translate(31.288 1.591)"><g class="f" transform="translate(-31.288 -1.591)"><path class="d" d="M200.065-59.623h2.756v2.756h-2.756Z" transform="translate(-169.543 60.447)"/></g></g><g class="u" transform="translate(43.011 5.989)"><g class="f" transform="translate(-43.011 -5.989)"><path class="d" d="M276.52-30.937h3.349v3.35H276.52Z" transform="translate(-234.276 36.16)"/></g></g></g></g></svg>