<svg xmlns="http://www.w3.org/2000/svg" xmlns:xlink="http://www.w3.org/1999/xlink" width="191.005" height="63.136" viewBox="0 0 191.005 63.136"><defs><style>.a,.o{fill:none;}.b{fill:url(#a);}.c{fill:#333;}.d{fill:#a4cd38;}.e{clip-path:url(#c);}.f{clip-path:url(#d);}.g{clip-path:url(#e);}.h{clip-path:url(#g);}.i{clip-path:url(#i);}.j{clip-path:url(#k);}.k{clip-path:url(#m);}.l{clip-path:url(#o);}.m{clip-path:url(#q);}.n{clip-path:url(#s);}.o{stroke:#b4b4b4;stroke-linecap:round;stroke-width:0.25px;}.p{clip-path:url(#u);}.q{clip-path:url(#w);}.r{clip-path:url(#y);}.s{clip-path:url(#aa);}.t{clip-path:url(#ac);}.u{clip-path:url(#ae);}</style><linearGradient id="a" x1="0.5" x2="0.5" y2="1" gradientUnits="objectBoundingBox"><stop offset="0" stop-color="#b4ee0e"/><stop offset="0.842" stop-color="#13eee7" stop-opacity="0.031"/><stop offset="1" stop-color="#0eeeee" stop-opacity="0"/></linearGradient><clipPath id="c"><path class="a" d="M4.667-49.9a14.16,14.16,0,0,1-3.2-.39c-.406-.09-.466-.2-.466-.436V-61.26a.314.314,0,0,1,.315-.3H3.135a.3.3,0,0,1,.3.3v2.6a10.476,10.476,0,0,1,1.232-.105c2.541,0,3.774,1.488,3.774,3.849v1.172C8.441-51.308,7.1-49.9,4.667-49.9Zm1.338-5.02c0-1.053-.27-1.834-1.338-1.834a11.267,11.267,0,0,0-1.232.075v4.69a8.313,8.313,0,0,0,1.232.09c1.068,0,1.338-.781,1.338-1.849Z" transform="translate(-1 61.56)"/></clipPath><clipPath id="d"><path class="a" d="M1-49.063H72.837V-65H1Z" transform="translate(-1 65)"/></clipPath><clipPath id="e"><path class="a" d="M39.644-48.143a6.154,6.154,0,0,0-2.06.525v5.878a.315.315,0,0,1-.3.316H35.465a.328.328,0,0,1-.315-.316v-7.194c0-.166.151-.23.3-.3a10.5,10.5,0,0,1,4.119-.923.3.3,0,0,1,.3.3v1.427a.276.276,0,0,1-.226.286Z" transform="translate(-35.15 50.158)"/></clipPath><clipPath id="g"><path class="a" d="M59.357-41.054H57.524a.3.3,0,0,1-.3-.3v-8.012a.3.3,0,0,1,.3-.3h1.834a.3.3,0,0,1,.3.3v8.012a.3.3,0,0,1-.3.3Z" transform="translate(-57.223 49.667)"/></clipPath><clipPath id="i"><path class="a" d="M74.454-50.031H72.619a.328.328,0,0,1-.315-.316V-61.26a.314.314,0,0,1,.315-.3h1.834a.288.288,0,0,1,.206.09.288.288,0,0,1,.079.21v10.914A.3.3,0,0,1,74.454-50.031Z" transform="translate(-72.304 61.56)"/></clipPath><clipPath id="k"><path class="a" d="M89.291-50.031H87.456a.328.328,0,0,1-.315-.316V-61.26a.314.314,0,0,1,.315-.3h1.835a.288.288,0,0,1,.206.09.288.288,0,0,1,.079.21v10.914a.3.3,0,0,1-.285.316Z" transform="translate(-87.141 61.56)"/></clipPath><clipPath id="m"><path class="a" d="M104.358-41.054h-1.833a.3.3,0,0,1-.3-.3v-8.012a.3.3,0,0,1,.3-.3h1.834a.3.3,0,0,1,.3.3v8.012A.3.3,0,0,1,104.358-41.054Z" transform="translate(-102.224 49.667)"/></clipPath><clipPath id="o"><path class="a" d="M120.1-41.289c-2.435,0-3.773-1.518-3.773-3.908V-46.25c0-2.39,1.338-3.908,3.773-3.908s3.758,1.518,3.758,3.908V-45.2C123.855-42.807,122.532-41.289,120.1-41.289Zm1.338-4.961c0-1.217-.466-1.833-1.338-1.833s-1.353.616-1.353,1.833V-45.2c0,1.218.481,1.848,1.353,1.848s1.338-.631,1.338-1.848Z" transform="translate(-116.324 50.158)"/></clipPath><clipPath id="q"><path class="a" d="M74.25-10.617a1.452,1.452,0,0,0-.9-1.342,1.452,1.452,0,0,0-1.583.315,1.452,1.452,0,0,0-.315,1.583,1.452,1.452,0,0,0,1.342.9,1.452,1.452,0,0,0,1.027-.425,1.452,1.452,0,0,0,.425-1.027Z" transform="translate(-71.346 12.069)"/></clipPath><clipPath id="s"><path class="a" d="M89.107-10.618a1.452,1.452,0,0,0-.9-1.342,1.452,1.452,0,0,0-1.583.315,1.453,1.453,0,0,0-.315,1.583,1.452,1.452,0,0,0,1.342.9,1.452,1.452,0,0,0,1.452-1.452Z" transform="translate(-86.202 12.071)"/></clipPath><clipPath id="u"><path class="a" d="M172.976-48.737h-1.039a3.67,3.67,0,0,0-3.67,3.67h0v1.434a3.67,3.67,0,0,0,3.67,3.67h1.039a3.67,3.67,0,0,0,2.6-1.075,3.67,3.67,0,0,0,1.075-2.6v-1.434h0a3.67,3.67,0,0,0-3.67-3.67Zm1.452,5.1A1.452,1.452,0,0,1,174-42.606a1.452,1.452,0,0,1-1.027.425h-1.039a1.452,1.452,0,0,1-1.452-1.452v-1.434h0a1.452,1.452,0,0,1,1.452-1.452h1.039a1.452,1.452,0,0,1,1.452,1.452h0v1.434Z" transform="translate(-168.267 48.737)"/></clipPath><clipPath id="w"><path class="a" d="M215.171-39.3a1.141,1.141,0,0,1-1-1.152v-3.427a1.971,1.971,0,0,0-1.971-1.971h0a1.971,1.971,0,0,0-1.971,1.971v3.429a1.141,1.141,0,0,1-1,1.152,1.11,1.11,0,0,1-.854-.282,1.109,1.109,0,0,1-.364-.822v-3.477a4.19,4.19,0,0,1,4.189-4.19h0a4.19,4.19,0,0,1,4.19,4.19v3.476a1.109,1.109,0,0,1-.364.822A1.109,1.109,0,0,1,215.171-39.3Z" transform="translate(-208.01 48.074)"/></clipPath><clipPath id="y"><path class="a" d="M252.441-39.12h-1.5a4.358,4.358,0,0,1-4.358-4.358h0a4.358,4.358,0,0,1,4.358-4.358h1.45a1.13,1.13,0,0,1,1.14.991,1.1,1.1,0,0,1-.279.845,1.1,1.1,0,0,1-.814.361h-1.5a2.161,2.161,0,0,0-2.161,2.161h0a2.161,2.161,0,0,0,2.161,2.161h1.45a1.13,1.13,0,0,1,1.14.99,1.1,1.1,0,0,1-.279.845,1.1,1.1,0,0,1-.814.361Z" transform="translate(-246.586 47.836)"/></clipPath><clipPath id="aa"><path class="a" d="M251.194-34.54h2.144a1.1,1.1,0,0,1,1.1,1.1,1.1,1.1,0,0,1-1.1,1.1h-2.144" transform="translate(-251.194 34.54)"/></clipPath><clipPath id="ac"><path class="a" d="M207.021-53.645a.978.978,0,0,0-.978-.978.978.978,0,0,0-.978.978.978.978,0,0,0,.978.978.977.977,0,0,0,.691-.286A.977.977,0,0,0,207.021-53.645Z" transform="translate(-205.065 54.623)"/></clipPath><clipPath id="ae"><path class="a" d="M284.424-24.485a1.452,1.452,0,0,0-1.452-1.452,1.452,1.452,0,0,0-1.452,1.452,1.452,1.452,0,0,0,1.452,1.452,1.452,1.452,0,0,0,1.452-1.452Z" transform="translate(-281.52 25.937)"/></clipPath></defs><g transform="translate(-2590 1632.78)"><g transform="translate(2590 -1611.14)"><g transform="translate(0 0.06)"><path class="b" d="M-196.02-24.328h12.153L-167.249-.954H-179.4Z" transform="translate(198.857 24.328)"/><path class="b" d="M-196.776-24.217h12.153l18.507,25.923h-12.153Z" transform="translate(196.776 37.482)"/></g><path class="c" d="M19.151-14.1h-6.9v-1.993c0-3.879,1.832-5.01,5.764-5.01a34.118,34.118,0,0,1,4.417.377c0,11.044-.054,22.033-.054,33.077h7.65c0-13.091.054-26.289.054-39.433l-6.2.7a35.079,35.079,0,0,0-7.434-.7c-7.38,0-9.6,1.405-11.374,4.338s0,9.011,0,9.011H.887L12.2,2.158c0-7.057.054-4.138.054-11.195h6.9ZM60.093-5.428c0-6.842-4.04-9.212-10.4-9.212a31.757,31.757,0,0,0-11.474,2.209c.431,1.562.862,3.178,1.239,4.795a29.782,29.782,0,0,1,8.4-1.347c3.933,0,4.9,1.562,4.9,4.579v.646c-2.047.162-5.172.269-7.219.431C40-3,35.743-.31,35.743,5.185c0,3.071,1.616,7.7,8.188,7.7A13.4,13.4,0,0,0,53.089,9.6c.054.054.108.054.108.108.269,2.64,1.939,3.178,4.256,3.178a16.274,16.274,0,0,0,6.464-1.347l-.377-4.31H60.093ZM52.766.5V5.562a8.949,8.949,0,0,1-5.441,2.37c-2.532,0-3.609-1.185-3.609-3.394,0-2.1,1.185-3.394,3.717-3.609ZM79.109-14.748c-7.273,0-11.205,2.963-11.205,8.027,0,5.172,4.687,6.518,9.535,8.027C79.809,2.06,82.4,2.6,82.4,4.7c0,2.209-1.993,2.909-4.471,2.909A27.6,27.6,0,0,1,68.55,5.831l-1.67,4.795A27.079,27.079,0,0,0,77.655,12.78c8.188,0,12.336-2.855,12.336-7.919,0-6.141-5.387-7.919-9.8-9.158C78.193-4.835,75.5-5.482,75.5-6.936c0-1.993,1.939-2.424,3.879-2.424a20.689,20.689,0,0,1,7.38,1.4c.269-.593,1.4-4.2,1.67-4.741A20.863,20.863,0,0,0,79.109-14.748Zm22.626,2.8L101.9-17.6v-8.565H94.3V12.349h7.757V-6.775a13.327,13.327,0,0,1,6.034-1.993c3.448,0,3.771,2.047,3.771,4.741V12.349h7.7V-5.643c0-4.956-1.131-9.1-8.3-9.1-2.478,0-6.141,1.239-9.1,3.017Zm60.281,6.518c0-6.842-4.04-9.212-10.4-9.212a31.757,31.757,0,0,0-11.475,2.209c.431,1.562.862,3.178,1.239,4.795a29.782,29.782,0,0,1,8.4-1.347c3.933,0,4.9,1.562,4.9,4.579v.646c-2.047.162-5.172.269-7.219.431-5.549.323-9.8,3.017-9.8,8.512,0,3.071,1.616,7.7,8.188,7.7A13.4,13.4,0,0,0,155.013,9.6c.054.054.108.054.108.108.269,2.64,1.939,3.178,4.256,3.178a16.275,16.275,0,0,0,6.465-1.347l-.377-4.31h-3.448ZM154.69.5V5.562a8.949,8.949,0,0,1-5.441,2.37c-2.532,0-3.609-1.185-3.609-3.394,0-2.1,1.185-3.394,3.717-3.609Zm24.3,11.852V-14.1h-7.7V12.349Zm.7-33.777c0-2.37-1.616-4.148-4.579-4.148-2.8,0-4.417,1.778-4.417,4.148,0,2.263,1.562,4.094,4.417,4.094C178.07-17.333,179.686-19.165,179.686-21.428Z" transform="translate(11.319 27.084)"/><circle class="d" cx="4.788" cy="4.788" r="4.788" transform="translate(135.096 31.92)"/></g><g transform="translate(2596.384 -1632.78)"><g class="e" transform="translate(0 0.844)"><g class="f" transform="translate(0 -0.843)"><path class="c" d="M-4-66.56H5.893v14.116H-4Z" transform="translate(2.774 66.178)"/></g></g><g class="g" transform="translate(8.373 3.639)"><g class="f" transform="translate(-8.373 -3.639)"><path class="c" d="M30.15-55.158h7.173v11.185H30.15Z" transform="translate(-23.003 57.571)"/></g></g><g class="h" transform="translate(13.785 3.759)"><g class="f" transform="translate(-13.785 -3.759)"><path class="c" d="M52.223-54.667H57.11V-43.6H52.223Z" transform="translate(-39.664 57.2)"/></g></g><g class="i" transform="translate(17.483 0.844)"><g class="f" transform="translate(-17.482 -0.843)"><path class="c" d="M67.3-66.56h4.887v13.981H67.3Z" transform="translate(-51.048 66.178)"/></g></g><g class="j" transform="translate(21.12 0.844)"><g class="f" transform="translate(-21.12 -0.843)"><path class="c" d="M82.141-66.56h4.887v13.981H82.141Z" transform="translate(-62.247 66.178)"/></g></g><g class="k" transform="translate(24.817 3.759)"><g class="f" transform="translate(-24.818 -3.759)"><path class="c" d="M97.224-54.667h4.887V-43.6H97.224Z" transform="translate(-73.632 57.2)"/></g></g><g class="l" transform="translate(28.274 3.639)"><g class="f" transform="translate(-28.275 -3.639)"><path class="c" d="M111.324-55.158h9.983v11.321h-9.983Z" transform="translate(-84.275 57.571)"/></g></g><g class="m" transform="translate(17.248 12.977)"><g class="f" transform="translate(-17.247 -12.977)"><path class="d" d="M66.346-17.069H71.7v5.356H66.346Z" transform="translate(-50.325 28.821)"/></g></g><g class="n" transform="translate(20.89 12.977)"><g class="f" transform="translate(-20.89 -12.977)"><path class="d" d="M81.2-17.071h5.357v5.357H81.2Z" transform="translate(-61.538 28.822)"/></g></g><g transform="translate(38.48 0.245)"><path class="o" d="M.5,0V14.5" transform="translate(-0.5)"/></g><path class="a" d="M1-49.063H72.837V-65H1Z" transform="translate(-1 65)"/><g class="p" transform="translate(41.009 3.987)"><g class="f" transform="translate(-41.01 -3.987)"><path class="d" d="M163.267-53.737H174.1v11.226H163.267Z" transform="translate(-123.483 56.498)"/></g></g><g class="q" transform="translate(50.754 4.15)"><g class="f" transform="translate(-50.754 -4.15)"><path class="d" d="M203.01-53.074h10.831v11.227H203.01Z" transform="translate(-153.482 55.998)"/></g></g><g class="r" transform="translate(60.212 4.208)"><g class="f" transform="translate(-60.212 -4.208)"><path class="d" d="M241.586-52.836h9.405v11.168h-9.405Z" transform="translate(-182.6 55.818)"/></g></g><g class="s" transform="translate(61.341 7.468)"><g class="f" transform="translate(-61.342 -7.468)"><path class="d" d="M246.194-39.54h5.694v4.649h-5.694Z" transform="translate(-186.078 45.782)"/></g></g><g class="t" transform="translate(50.031 2.544)"><g class="f" transform="translate(-50.032 -2.544)"><path class="d" d="M200.065-59.623h4.407v4.407h-4.407Z" transform="translate(-151.259 60.941)"/></g></g><g class="u" transform="translate(68.778 9.577)"><g class="f" transform="translate(-68.777 -9.577)"><path class="d" d="M276.52-30.937h5.356v5.356H276.52Z" transform="translate(-208.969 39.288)"/></g></g></g></g></svg>