<svg xmlns="http://www.w3.org/2000/svg" width="23.961" height="20.966" viewBox="0 0 23.961 20.966"><path d="M23.213,18.724H7.488v-.749a.751.751,0,0,0-.749-.749h-1.5a.751.751,0,0,0-.749.749v.749H.749A.751.751,0,0,0,0,19.472v1.5a.751.751,0,0,0,.749.749H4.493v.749a.751.751,0,0,0,.749.749h1.5a.751.751,0,0,0,.749-.749v-.749H23.213a.751.751,0,0,0,.749-.749v-1.5A.751.751,0,0,0,23.213,18.724Zm0-7.488H19.469v-.749a.751.751,0,0,0-.749-.749h-1.5a.751.751,0,0,0-.749.749v.749H.749A.751.751,0,0,0,0,11.984v1.5a.751.751,0,0,0,.749.749H16.474v.749a.751.751,0,0,0,.749.749h1.5a.751.751,0,0,0,.749-.749v-.749h3.744a.751.751,0,0,0,.749-.749v-1.5A.751.751,0,0,0,23.213,11.236Zm0-7.488H13.478V3a.751.751,0,0,0-.749-.749h-1.5A.751.751,0,0,0,10.483,3v.749H.749A.751.751,0,0,0,0,4.5v1.5a.751.751,0,0,0,.749.749h9.734v.749a.751.751,0,0,0,.749.749h1.5a.751.751,0,0,0,.749-.749V6.743h9.734a.751.751,0,0,0,.749-.749V4.5A.751.751,0,0,0,23.213,3.748Z" transform="translate(0 -2.25)"/></svg>