<svg xmlns="http://www.w3.org/2000/svg" width="16.062" height="30.849" viewBox="0 0 16.062 30.849"><path d="M26.019,22.6a6.549,6.549,0,0,1-1.713,4.536,7.393,7.393,0,0,1-4.45,2.35V32.5a.53.53,0,0,1-.551.551H16.981a.559.559,0,0,1-.551-.551V29.489a10.851,10.851,0,0,1-2.195-.534,10.571,10.571,0,0,1-3.021-1.592,9.811,9.811,0,0,1-.8-.646q-.215-.207-.3-.31a.523.523,0,0,1-.034-.706l1.773-2.324a.536.536,0,0,1,.4-.207.427.427,0,0,1,.413.155l.034.034a8.989,8.989,0,0,0,4.183,2.152,6.013,6.013,0,0,0,1.274.138,4.174,4.174,0,0,0,2.453-.74,2.411,2.411,0,0,0,1.059-2.1,1.745,1.745,0,0,0-.258-.912,3.226,3.226,0,0,0-.577-.723,4.725,4.725,0,0,0-1.007-.646q-.689-.353-1.136-.551t-1.377-.559q-.671-.275-1.059-.43t-1.059-.456q-.671-.3-1.076-.534t-.973-.611a6.062,6.062,0,0,1-.921-.732,10.729,10.729,0,0,1-.749-.844,4.211,4.211,0,0,1-.611-1,6.9,6.9,0,0,1-.362-1.145,5.975,5.975,0,0,1-.146-1.343A5.886,5.886,0,0,1,12.041,8.16a7.877,7.877,0,0,1,4.39-2.307v-3.1a.559.559,0,0,1,.551-.551h2.324a.53.53,0,0,1,.551.551v3.03a9.575,9.575,0,0,1,1.9.4,11.029,11.029,0,0,1,1.5.577,8.294,8.294,0,0,1,1.093.646q.516.362.671.5t.258.241a.5.5,0,0,1,.086.654L23.971,11.31a.469.469,0,0,1-.4.275.549.549,0,0,1-.465-.121q-.052-.052-.25-.207t-.671-.456a8.883,8.883,0,0,0-1.007-.551A7.688,7.688,0,0,0,19.9,9.8a5.743,5.743,0,0,0-1.472-.2,4.474,4.474,0,0,0-2.668.74,2.314,2.314,0,0,0-.887,2.737,1.937,1.937,0,0,0,.508.714,7.586,7.586,0,0,0,.68.568,6.063,6.063,0,0,0,.964.534q.646.3,1.041.465t1.205.473q.912.344,1.394.542t1.308.6a10.4,10.4,0,0,1,1.3.732,10.991,10.991,0,0,1,1.067.861,4.457,4.457,0,0,1,.912,1.093,6.238,6.238,0,0,1,.542,1.317,5.679,5.679,0,0,1,.224,1.618Z" transform="translate(-9.957 -2.203)"/></svg>