<svg xmlns="http://www.w3.org/2000/svg" width="24.97" height="27.041" viewBox="0 0 24.97 27.041"><defs><style>.a{fill:none;stroke:#000;stroke-linecap:round;stroke-linejoin:round;stroke-width:3px;}</style></defs><g transform="translate(-11.147 -9.4)"><path class="a" d="M22.008,12.519,11.25,6.315" transform="translate(7.002 7.266)"/><path class="a" d="M26.016,19.735V10.173a2.391,2.391,0,0,0-1.2-2.068L16.453,3.323a2.391,2.391,0,0,0-2.391,0L5.7,8.1a2.391,2.391,0,0,0-1.2,2.068v9.563A2.391,2.391,0,0,0,5.7,21.8l8.367,4.781a2.391,2.391,0,0,0,2.391,0L24.821,21.8a2.391,2.391,0,0,0,1.2-2.068Z" transform="translate(8.373 7.938)"/><path class="a" d="M4.905,10.44,15.34,16.476,25.776,10.44" transform="translate(8.291 6.428)"/><path class="a" d="M18,30.049V18" transform="translate(5.631 4.893)"/></g></svg>